#!OML:ASF F:\VICON\USERDATA\INSTALL\rory3\rory3.ASF
:FULLY-SPECIFIED
:DEGREES
164
root -0.46658758190199395 17.296562898256635 59.297919942220965 0.958266573446547 -1.1758647351645954 -0.8415586968368147
lfemur -15.403710298666041 -2.0415579636443613 -21.12990524486343
ltibia 41.27085811167671
lfoot 16.401936568780172 -13.649580332940502
ltoes -0.03479269581494204
rfemur -17.069607403864154 5.879189434832 24.894239500407775
rtibia 62.56752102409755
rfoot -4.263167018331487 -12.861250149542787
rtoes 1.7086683862687304
lowerback 12.950749103041735 0.09545388084897588 0.17598273971434752
upperback -0.08963282566325043 0.272644110860762 1.351627511108067
thorax -7.719112396475438 0.1632679649254394 1.928878292220241
lowerneck -16.768852499284442 -3.382579817872343 -3.1474555105962363
upperneck 18.805960079726805 -3.9877145505515172 2.738091734643111
head 8.584494971697486 -1.8790730584661526 1.1847787025302843
lclavicle -1.6750320722479431e-15 -3.591776045378555e-15
lhumerus -45.059805255508564 -4.731599077357808 88.68362600034506
lradius 65.92175715482203
lwrist 13.00529558155837
lhand -30.19546225127046 12.982085304399979
lfingers 7.125019999999999
lthumb -3.3528494960542874 43.056002691167734
rclavicle -1.6770128428664617e-15 -3.5931596834686745e-15
rhumerus -38.28974507472386 -8.510477148923469 -85.69667282339
rradius 54.21960538676662
rwrist 0.2462160878725328
rhand -18.4728154470643 28.45088509487581
rfingers 7.125019999999999
rthumb 7.17508437869786 -0.9762454068432378
165
root -0.4716760125084572 17.297910233166974 59.18938233605842 1.3117180580029686 -1.4865527249244472 -1.4544169028108098
lfemur -14.69170842943764 -1.9358308868533411 -20.56302570550016
ltibia 41.25310171626393
lfoot 17.31949835256614 -13.371563253587386
ltoes 1.226856947325305
rfemur -18.138057338464254 6.22708731516514 25.48415159152497
rtibia 63.59279822190335
rfoot -3.8147158205353175 -13.155045918582813
rtoes 2.054388375693154
lowerback 12.781839138031222 0.08898548310225562 0.6040243620112287
upperback -0.12208583920288085 0.33174877786336965 1.4779364904405528
thorax -7.638870432777264 0.1936881072990497 1.7983955176329083
lowerneck -16.88326882902645 -3.3797305393459833 -3.1077072313075575
upperneck 18.853541161161772 -3.981724514797442 2.712372553842466
head 8.650000825883803 -1.8721190180579563 1.160201959768841
lclavicle -1.6758202925261435e-15 -3.59233376155775e-15
lhumerus -44.50337837748663 -4.961039810171982 88.65184067143302
lradius 65.66232553540372
lwrist 11.858440010680559
lhand -29.596835877664297 13.070599925788144
lfingers 7.125019999999999
lthumb -2.8331866589497507 43.078660246007836
rclavicle -1.6773294174362919e-15 -3.593383614229586e-15
rhumerus -38.245986221509995 -8.460788571743251 -85.88306492903226
rradius 54.51749039281772
rwrist -0.5569403387078711
rhand -18.416400601622797 28.439357106286817
rfingers 7.125019999999999
rthumb 7.228830780735099 -0.7989871966945808
166
root -0.4703264497743975 17.341807136684224 58.996378690684466 1.3465950963456557 -1.5952072029410092 -1.72379114859574
lfemur -14.091765525318774 -2.0222603272923423 -20.339902395297166
ltibia 41.63791958171832
lfoot 18.624430705526283 -12.933613320207336
ltoes 1.0530386844088175
rfemur -18.783962604400088 6.299769411757167 25.675927428293047
rtibia 63.65169708205471
rfoot -3.363879822891357 -13.351216295394243
rtoes 2.3826848185834493
lowerback 12.848319412846084 0.03232782341956508 0.8652001904588669
upperback -0.10492993188647612 0.2889702379789564 1.5674355566007094
thorax -7.7222366866602 0.17435833036920306 1.7235495381059467
lowerneck -16.856638524678633 -3.3569464456694957 -3.066369467052649
upperneck 18.92455632836124 -3.944851023879852 2.688021707919288
head 8.707878052159655 -1.8503754200717721 1.149237275447311
lclavicle -1.6750518767254783e-15 -3.591787877301924e-15
lhumerus -44.00286480305658 -5.183007372966165 88.66140703097383
lradius 65.85620143834868
lwrist 11.28952385539722
lhand -28.98728794988779 12.9602619762047
lfingers 7.125019999999999
lthumb -2.2544795977143477 42.95672537721043
rclavicle -1.677300567009388e-15 -3.593363228258455e-15
rhumerus -38.216756138517596 -8.180870291404263 -86.0608767169425
rradius 54.797543269909994
rwrist -1.1244460992384795
rhand -18.320909648774318 28.424989194307077
rfingers 7.125019999999999
rthumb 7.303062563022722 -0.6992989284263426
167
root -0.4694906578559341 17.330564482197968 59.08204880884092 1.4310392578976465 -1.5129262659955034 -1.7040322806259345
lfemur -13.625726742839582 -2.2186071170152992 -20.436174651166706
ltibia 42.486712816259015
lfoot 19.587325645434014 -12.750134513908064
ltoes 0.6310005486161314
rfemur -19.444483262046507 6.094017685441726 25.54848316610991
rtibia 63.18282102429654
rfoot -2.9962967004428056 -13.49802543410723
rtoes 3.3725389648456723
lowerback 12.866684326835722 -0.06196886978248112 0.8370356546414388
upperback -0.08953390488648541 0.15388834424506903 1.5975209578776621
thorax -7.726871303012688 0.09938516974073086 1.7764727455774074
lowerneck -16.865241272693435 -3.3379839972516985 -3.0659699174590243
upperneck 18.90156355970582 -3.9373713225531612 2.7331588867693712
head 8.715771525148776 -1.8452928864955431 1.1722448114819877
lclavicle -1.6761750310949021e-15 -3.592583876091963e-15
lhumerus -43.46867604813423 -5.46852744461346 88.65881723410202
lradius 66.40757007770883
lwrist 11.911256125754946
lhand -28.59044266214903 12.694453079338743
lfingers 7.125019999999999
lthumb -1.9447352647242342 42.66788692259848
rclavicle -1.6775846178571618e-15 -3.5935640576214385e-15
rhumerus -38.15762751407979 -7.830632697114723 -86.1381005367461
rradius 55.01509714522535
rwrist -1.4072364590378483
rhand -18.305578047789577 28.47653486739385
rfingers 7.125019999999999
rthumb 7.286675929328833 -0.512677996036204
168
root -0.46901280862039324 17.308982527928364 59.12651310097337 1.4030650945891372 -1.4459884315756755 -1.7591729283525126
lfemur -12.998450956948492 -2.4030897188554867 -20.417930966597165
ltibia 43.52629514292018
lfoot 20.19656881166206 -12.396149207499633
ltoes -0.3376367756562848
rfemur -20.07918525824976 5.865277179947658 25.48274037752197
rtibia 62.21929925040807
rfoot -2.5965822691020275 -13.656277243756765
rtoes 2.822921007480878
lowerback 12.994070293026772 -0.14293950922848403 0.8861189731699031
upperback -0.05060687129126215 0.04015085358096937 1.6532153040778255
thorax -7.7675863656524164 0.034333301578279574 1.8352084046766257
lowerneck -16.771975866028956 -3.3056581059841728 -3.023302477813737
upperneck 18.893470535174018 -3.884719595738407 2.7032157246265944
head 8.701238764829736 -1.825530400690265 1.1693571209855849
lclavicle -1.6750183005590758e-15 -3.591766978989998e-15
lhumerus -42.90054033859616 -5.878899880356721 88.6894696604653
lradius 67.3329784835382
lwrist 13.84268835860056
lhand -28.67715524818596 12.385811484507482
lfingers 7.125019999999999
lthumb -2.0620189742214174 42.444510196073054
rclavicle -1.6780814091034047e-15 -3.593915348951711e-15
rhumerus -38.171033583465956 -7.546998528076092 -86.26571620674014
rradius 55.337480608815866
rwrist -1.5622659145760571
rhand -18.22689646265301 28.58897695789105
rfingers 7.125019999999999
rthumb 7.451646130356795 -0.1268821396224285
169
root -0.46592600597441625 17.290123379139313 59.25417002209777 1.354424030344406 -1.3739522321537994 -1.7502959342920472
lfemur -12.374135725181693 -2.5408065608446946 -20.40326892077771
ltibia 44.44062122262945
lfoot 20.6491716767984 -11.910367546433926
ltoes -1.027261057502451
rfemur -20.751733808475002 5.566908480223104 25.30104697770622
rtibia 60.903973878854146
rfoot -2.036475225896575 -13.773120026976938
rtoes 2.5673078717244664
lowerback 13.078198012906281 -0.19861743159650874 0.8736136924045181
upperback -0.09709953154822984 -0.018153331208784373 1.7207122354180018
thorax -7.86325306262872 0.004180417859075192 1.9106176021715517
lowerneck -16.639861429701376 -3.3093967625596283 -3.036122164258942
upperneck 18.94259593369126 -3.89072250220752 2.7324119386243964
head 8.708076705764176 -1.8288463358535387 1.1900924739785819
lclavicle -1.675149932871431e-15 -3.591862460713891e-15
lhumerus -42.23646090782373 -6.1916883879227695 88.74216432876463
lradius 68.3175318160633
lwrist 15.2417480828424
lhand -28.98623127974732 12.153705237817457
lfingers 7.125019999999999
lthumb -2.3968421061528846 42.154875558539466
rclavicle -1.6774237606056723e-15 -3.593450257005477e-15
rhumerus -38.28620554367355 -7.353231851391023 -86.24249839723174
rradius 55.41742138136341
rwrist -1.4068739696416892
rhand -18.115449594930514 28.6615047347731
rfingers 7.125019999999999
rthumb 7.538847214203834 0.11343620565623219
170
root -0.4607919958959433 17.27792497401177 59.3552904315586 1.3042463071037718 -1.2820793800619288 -1.7669128255652538
lfemur -11.861636211188499 -2.609560050593898 -20.312497216944468
ltibia 45.23878846599255
lfoot 20.401672582141728 -11.04407108553944
ltoes -1.8614959522512597
rfemur -21.522160999248864 5.185257103111217 25.060603669112634
rtibia 59.51907979118504
rfoot -1.573363369227921 -13.791770381373663
rtoes 3.235251830352272
lowerback 13.12334337970963 -0.23125253716040245 0.8932719495387039
upperback -0.13673319262486464 -0.04428051457329385 1.7910235850210812
thorax -7.851257681695801 -0.014961165063004045 1.9406870293012342
lowerneck -16.58456556191506 -3.307737819987115 -3.0627406650905575
upperneck 19.01424921119844 -3.882409075506482 2.7343655454848985
head 8.731829820204224 -1.8284677461557937 1.1958485517792243
lclavicle -1.675468850205263e-15 -3.592090281111226e-15
lhumerus -41.64697685929778 -6.416164907759018 88.8304001276743
lradius 69.30607038369916
lwrist 16.101163233662806
lhand -29.278888730111976 11.901317474203907
lfingers 7.125019999999999
lthumb -2.6378001258001182 41.939226761842725
rclavicle -1.6776664126692676e-15 -3.593621822861694e-15
rhumerus -38.47542777286329 -7.2804339649469085 -86.0725937204248
rradius 55.464263759914004
rwrist -1.1520826545077232
rhand -18.064338811948037 28.586248655534853
rfingers 7.125019999999999
rthumb 7.548610287205979 0.13179045896189984
171
root -0.4533472293165957 17.268323415610837 59.237430174344475 1.2490764246600419 -1.2313888617055686 -1.8060631743249087
lfemur -11.509847236823417 -2.6875620909112037 -20.201573892771485
ltibia 45.84195662103358
lfoot 19.379917619460546 -9.812060250988884
ltoes -2.721800140828752
rfemur -22.21926897748954 4.914219481194766 24.843179668566016
rtibia 58.26638484284703
rfoot -1.2519879320886722 -13.70684193884734
rtoes 2.1800456470058744
lowerback 13.2129555823813 -0.243493709542914 0.9520031415447523
upperback -0.1808442542167376 -0.0560893990703597 1.8360377579522138
thorax -7.88364477645878 -0.031213956235532803 1.927853649248687
lowerneck -16.53554954836024 -3.3360791146514397 -3.078011860982432
upperneck 19.120828201523373 -3.9233606677514445 2.785076958069901
head 8.768698690808659 -1.8465340781612842 1.2079311845956555
lclavicle -1.6748953017712798e-15 -3.591681727156227e-15
lhumerus -41.176668400966236 -6.5608274891812535 88.91931613519175
lradius 70.30551899668261
lwrist 16.051285038421632
lhand -29.449742805134097 11.750545981467436
lfingers 7.125019999999999
lthumb -2.695005256177047 41.92196032133153
rclavicle -1.6772535879521943e-15 -3.593329879058475e-15
rhumerus -38.747582972804814 -7.363390746128482 -85.9186651218622
rradius 55.56321139889971
rwrist -0.9471917863716484
rhand -18.04532650886576 28.526444544503804
rfingers 7.125019999999999
rthumb 7.562124072017379 0.1449017470589415
